<?xml version="1.0" standalone="no"?>
<!DOCTYPE svg PUBLIC "-//W3C//DTD SVG 20010904//EN"
 "http://www.w3.org/TR/2001/REC-SVG-20010904/DTD/svg10.dtd">
<svg version="1.0" xmlns="http://www.w3.org/2000/svg"
 width="275.000000pt" height="183.000000pt" viewBox="0 0 275.000000 183.000000"
 preserveAspectRatio="xMidYMid meet">
<metadata>
Created by potrace 1.10, written by Peter Selinger 2001-2011
</metadata>
<g transform="translate(0.000000,183.000000) scale(0.100000,-0.100000)"
fill="#000000" stroke="none">
<path d="M1021 1712 c-1 -16 25 -69 50 -101 23 -28 24 -64 5 -81 -29 -23 -72
-131 -47 -116 13 8 21 -18 14 -46 -9 -32 -111 -218 -134 -244 -24 -26 -24 -34
3 -81 45 -78 80 -94 166 -77 33 7 49 31 32 48 -13 13 -13 36 0 36 5 0 7 -8 3
-17 -3 -10 2 -7 13 7 21 29 55 59 67 60 5 0 23 11 41 25 18 14 36 22 39 19 4
-4 18 1 32 10 24 16 25 16 25 -6 -1 -52 -48 -129 -152 -247 -53 -60 -121 -190
-113 -213 4 -10 -1 -17 -14 -21 -29 -7 -27 -42 4 -69 30 -26 31 -43 5 -65 -26
-23 -25 -35 5 -61 33 -29 32 -54 -5 -90 -45 -46 -40 -59 28 -69 73 -10 542
-11 604 0 27 5 49 14 52 24 5 11 2 13 -11 8 -45 -18 -206 -27 -413 -22 -241 6
-278 11 -259 33 6 7 16 12 22 10 7 -1 9 -1 5 1 -4 2 -4 11 -1 19 3 7 9 12 13
9 4 -3 7 3 6 12 -1 11 9 17 32 20 18 2 32 0 32 -6 0 -6 -4 -11 -10 -11 -5 0
-6 -7 -3 -17 4 -10 2 -14 -4 -10 -13 8 -27 -23 -16 -33 4 -4 36 -10 70 -13 46
-4 67 -1 83 10 16 11 19 18 10 23 -21 13 -3 40 27 41 25 0 24 2 -11 12 -21 7
-38 15 -37 20 0 4 1 12 1 17 0 6 24 10 53 11 40 0 47 2 30 9 -12 5 -78 8 -148
8 -130 -1 -168 9 -125 32 17 9 19 14 9 26 -9 12 -6 14 20 14 17 0 31 -4 31
-10 0 -5 5 -10 11 -10 5 0 8 4 4 10 -3 5 39 8 112 6 65 -2 91 -2 58 1 -33 2
-64 9 -70 15 -7 8 -5 9 7 5 10 -3 20 -2 23 3 4 6 17 10 30 10 13 0 27 5 30 10
6 10 3 11 -172 16 -108 2 -123 6 -123 30 0 8 5 12 10 9 6 -3 10 -1 10 4 0 6
12 11 27 11 26 0 26 0 7 -22 -10 -12 -13 -18 -5 -13 7 4 50 7 95 6 53 -1 76 2
67 8 -10 6 36 10 130 10 79 1 173 5 209 9 44 6 1 7 -131 4 -137 -3 -199 -1
-203 7 -4 6 -2 11 3 11 6 0 11 7 11 16 0 8 5 12 10 9 6 -4 10 8 10 27 0 19 5
39 12 46 6 6 12 36 12 66 l1 55 45 10 c25 6 76 21 115 35 76 27 93 25 56 -5
-26 -21 -21 -25 10 -8 18 9 19 8 10 -8 -5 -10 -21 -31 -35 -48 -14 -16 -30
-35 -34 -41 -31 -37 -47 -144 -21 -144 7 0 9 9 5 23 -6 24 13 87 26 87 4 0 8
7 8 15 0 22 18 18 25 -5 4 -12 1 -27 -5 -35 -9 -11 -9 -19 -2 -27 5 -7 12 -24
14 -38 3 -21 8 -25 38 -24 19 1 50 4 68 9 30 7 32 6 32 -19 0 -22 -5 -26 -27
-26 -16 0 -35 -5 -43 -10 -11 -7 -2 -9 30 -4 25 3 50 7 56 9 14 4 40 -12 32
-20 -3 -4 -37 -10 -75 -14 -37 -5 -62 -9 -55 -10 7 0 10 -5 7 -11 -3 -5 4 -10
17 -11 16 -1 12 -4 -14 -11 -56 -15 -46 -25 18 -20 45 4 56 2 52 -9 -3 -10
-33 -16 -107 -20 -56 -4 -104 -9 -107 -11 -3 -3 52 -4 121 -2 69 2 125 -1 125
-5 0 -13 -38 -21 -105 -21 -56 -1 -58 -2 -31 -13 l28 -12 -31 -24 c-35 -27
-38 -46 -15 -80 16 -22 22 -23 81 -18 55 5 121 26 86 27 -7 0 -13 8 -13 17 0
13 3 14 12 5 7 -7 29 -12 50 -12 35 0 78 -29 78 -52 0 -4 72 -8 160 -8 88 0
160 4 160 8 0 5 -19 17 -42 28 -35 15 -70 20 -177 22 -101 2 -139 6 -151 17
-15 14 -48 19 -98 16 -20 -1 -21 -4 -12 -22 15 -27 12 -28 -48 -36 -46 -5 -51
-4 -67 21 -27 41 -10 51 93 55 6 1 12 7 12 14 0 8 9 22 20 32 26 23 25 46 -1
69 l-21 18 31 32 c38 39 39 58 6 80 -14 9 -25 23 -25 31 0 20 20 55 45 77 20
18 20 18 -10 45 l-30 26 -3 -56 c-2 -46 -6 -57 -20 -57 -15 0 -15 -2 -2 -10
12 -8 11 -10 -6 -10 -39 0 -48 45 -25 131 11 41 22 101 25 134 l5 60 -18 -80
c-33 -147 -44 -184 -53 -179 -10 6 -10 -1 1 -48 8 -34 7 -38 -10 -38 -34 0
-42 44 -25 143 12 67 22 96 42 120 38 45 71 129 45 112 -5 -3 -12 -18 -16 -33
-6 -26 -37 -72 -49 -72 -3 0 -6 9 -6 20 0 22 -10 26 -27 9 -6 -6 -17 -12 -24
-13 -8 -2 -21 -6 -29 -9 -8 -4 -48 -15 -88 -26 -61 -17 -72 -18 -61 -5 7 8 18
13 25 10 13 -5 27 26 25 59 0 11 2 14 5 7 3 -6 10 -10 15 -6 5 3 6 11 2 17
-11 17 -12 68 -2 61 5 -3 8 0 7 8 -2 7 3 12 10 10 10 -2 10 2 2 17 -10 20 -40
19 -40 -1 0 -5 -19 -54 -41 -107 l-41 -98 -59 -27 c-32 -14 -72 -38 -89 -52
-16 -14 -30 -21 -30 -15 0 11 102 81 118 81 5 0 35 51 66 113 31 61 70 137 87
167 23 40 32 68 32 103 1 47 1 47 20 28 15 -14 20 -34 21 -80 1 -65 16 -87 16
-23 0 69 -28 132 -60 132 -7 0 -10 7 -6 15 3 8 1 25 -5 37 l-10 23 5 -23 c2
-12 0 -20 -5 -16 -5 3 -9 12 -9 19 0 19 -31 55 -46 55 -7 0 -21 8 -33 18 -21
16 -21 19 -7 64 8 27 10 46 5 43 -5 -3 -14 -24 -20 -45 -13 -42 -34 -67 -59
-70 -35 -5 -81 1 -75 9 3 5 1 12 -5 16 -6 4 -8 11 -5 16 9 14 42 11 59 -7 9
-8 24 -14 34 -11 13 2 8 8 -18 20 -35 17 -35 17 -5 12 22 -4 26 -3 15 5 -8 5
-11 10 -6 10 5 0 3 7 -4 15 -10 13 -9 15 9 15 12 0 21 6 21 16 0 8 -4 13 -9 9
-6 -3 -19 14 -29 38 -11 24 -33 53 -48 64 l-29 21 2 -40 c1 -22 7 -46 13 -53
7 -8 9 -19 5 -24 -3 -6 6 -13 20 -17 18 -4 24 -11 21 -21 -3 -8 -6 -19 -6 -24
0 -5 -10 -9 -22 -9 -19 0 -20 2 -8 11 11 8 12 12 3 16 -7 2 -13 11 -13 19 0
25 -17 15 -23 -13 -8 -39 -29 -64 -54 -66 -12 0 -26 -11 -32 -24 -6 -13 -15
-23 -21 -23 -13 0 0 26 27 55 20 21 23 27 23 46 0 5 4 8 9 4 6 -3 8 5 5 19 -5
27 29 56 41 36 3 -5 11 -10 18 -10 6 0 -4 16 -23 35 -37 38 -48 40 -30 4 9
-16 -3 -10 -38 21 -28 23 -53 47 -56 54 -3 7 -5 6 -5 -2z m149 -227 c0 -19 31
-35 67 -35 19 0 24 -3 14 -9 -11 -7 -11 -12 0 -32 14 -24 14 -24 17 12 2 20
11 44 21 53 16 14 20 14 49 -7 17 -12 32 -26 32 -30 0 -5 14 -26 32 -48 17
-21 29 -41 26 -44 -3 -3 -17 12 -31 32 -25 36 -97 110 -97 102 -6 -58 -17 -97
-45 -154 -32 -66 -37 -72 -83 -88 -29 -11 -58 -30 -71 -47 -12 -17 -27 -30
-33 -30 -7 0 -5 7 4 18 8 9 18 25 21 35 4 10 11 16 15 13 12 -7 84 43 77 54
-6 10 15 60 26 60 4 0 11 -5 15 -11 4 -8 12 -2 21 15 10 20 11 31 3 44 -9 14
-10 13 -4 -7 4 -15 2 -21 -4 -17 -6 3 -13 0 -16 -6 -6 -14 4 28 11 49 7 17
-38 34 -54 21 -7 -5 -16 -8 -20 -5 -4 3 -13 -1 -20 -8 -10 -11 -10 -15 0 -18
7 -3 5 -6 -5 -6 -9 -1 -20 4 -24 10 -7 11 -69 -104 -99 -184 -11 -29 -21 -43
-25 -36 -5 7 -11 -1 -15 -20 -4 -20 -16 -36 -28 -41 -12 -5 -16 -9 -8 -9 11
-1 11 -4 1 -16 -10 -12 -15 -13 -20 -4 -4 6 9 39 30 73 21 34 57 100 80 146
23 47 47 88 52 91 6 4 9 12 6 19 -3 9 -9 8 -21 -4 -9 -10 -17 -14 -17 -10 0 4
11 17 24 29 13 12 25 28 28 36 3 8 9 11 13 7 4 -4 2 -14 -5 -23 -9 -11 -9 -15
-1 -15 7 0 9 -5 5 -11 -3 -6 8 -3 25 5 35 19 41 36 11 36 -22 0 -27 15 -7 23
21 9 27 7 27 -8z m202 -97 c33 -38 39 -52 38 -89 -1 -86 -2 -93 -10 -79 -5 9
-9 9 -15 1 -4 -7 -1 -19 7 -28 11 -15 11 -16 -6 -10 -14 6 -17 4 -12 -9 5 -13
4 -14 -7 -6 -8 7 -18 8 -22 4 -5 -4 -5 -1 -1 5 5 9 -5 12 -41 9 -31 -2 -47 -7
-45 -15 2 -9 -3 -9 -16 -2 -13 7 -22 7 -30 -1 -13 -13 -35 -1 -25 15 3 6 -10
-2 -29 -17 -42 -31 -51 -49 -35 -65 6 -6 8 -13 5 -17 -4 -3 -12 4 -18 16 -9
17 -8 26 7 48 9 15 18 32 18 37 0 6 11 12 24 13 17 3 20 6 11 12 -8 5 -1 11
22 19 42 14 79 54 88 95 4 17 11 30 17 29 6 -1 9 6 6 17 -3 11 0 20 6 20 7 0
9 9 5 26 -10 38 11 28 58 -28z m-152 12 c0 -21 -55 -89 -64 -79 -4 3 5 18 19
33 23 25 29 39 26 59 0 4 4 7 9 7 6 0 10 -9 10 -20z m-50 -29 c0 -5 -9 -11
-21 -14 -13 -3 -18 -10 -14 -17 8 -13 -24 -105 -33 -96 -9 10 -54 -65 -48 -80
3 -9 -7 -26 -25 -42 -29 -26 -29 -27 -10 -39 17 -11 21 -9 33 17 13 31 23 37
33 21 3 -5 -6 -21 -20 -35 -14 -14 -28 -39 -31 -56 -4 -17 -11 -33 -15 -36
-13 -7 -11 23 2 48 8 14 8 23 0 31 -8 8 -11 5 -11 -9 0 -11 -4 -24 -9 -29 -5
-6 -11 -17 -14 -25 -2 -8 -2 -1 1 15 2 17 5 47 5 67 0 21 3 35 7 33 11 -7 42
31 38 47 -1 7 9 29 24 48 14 19 32 61 38 92 11 50 16 57 39 61 14 2 27 5 29 6
1 0 2 -3 2 -8z m-180 -302 c0 -4 -7 -15 -16 -24 -20 -20 -40 -5 -29 22 7 17 8
17 16 -2 8 -17 9 -16 6 8 -4 22 -2 25 9 16 8 -6 14 -15 14 -20z m314 -216 c-8
-27 -17 -61 -21 -78 -3 -16 -12 -43 -20 -58 -8 -16 -12 -31 -9 -34 8 -8 -20
-33 -37 -33 -9 0 -24 3 -34 7 -14 6 -11 9 17 14 30 6 28 7 -20 8 -78 2 -103
10 -89 27 6 8 16 11 23 7 8 -4 8 -3 0 7 -15 15 6 54 52 93 26 22 33 24 38 12
3 -8 0 -14 -6 -12 -5 1 -12 -7 -14 -17 -1 -10 -7 -22 -12 -25 -5 -3 -16 -20
-24 -38 -14 -28 -14 -32 -1 -37 27 -11 38 -6 39 17 3 43 59 159 84 173 45 24
50 19 34 -33z m-31 -453 c4 -4 3 -19 -3 -34 -7 -20 -15 -26 -26 -22 -9 3 -29
6 -45 6 -27 0 -29 2 -23 28 4 15 9 31 11 35 5 9 74 -1 86 -13z"/>
<path d="M1203 1305 c-6 -14 -7 -27 -3 -30 12 -8 34 35 23 46 -4 4 -13 -3 -20
-16z"/>
<path d="M1333 1331 c1 -48 7 -76 15 -79 18 -6 15 96 -3 128 -14 23 -15 20
-12 -49z"/>
<path d="M1265 1677 c-8 -4 -15 -12 -15 -17 0 -16 40 -51 50 -45 15 9 12 21
-7 41 -17 17 -17 18 0 11 10 -4 23 -7 28 -7 5 0 7 -10 4 -23 -5 -17 -2 -24 9
-24 10 0 16 9 16 23 0 12 3 29 6 38 5 12 -2 15 -35 13 -23 -1 -48 -5 -56 -10z"/>
<path d="M1370 1646 c0 -20 4 -36 9 -36 5 0 17 -3 27 -7 15 -5 16 -2 11 26 -7
32 0 34 29 7 13 -12 6 -49 -7 -40 -5 3 -9 0 -9 -5 0 -6 3 -11 8 -11 12 0 62
-41 114 -92 26 -26 50 -43 52 -39 7 11 -94 106 -122 115 -12 4 -22 14 -22 22
0 8 4 13 9 10 5 -4 7 3 4 14 -3 11 0 20 6 20 6 0 11 -13 11 -29 0 -17 6 -31
16 -35 22 -9 23 -8 17 17 -4 18 -3 19 6 7 6 -8 11 -24 11 -34 0 -11 2 -17 5
-14 3 3 3 24 -1 46 -6 38 -10 42 -58 61 -28 11 -66 23 -83 26 -32 6 -33 6 -33
-29z"/>
<path d="M1290 1580 c0 -11 -7 -20 -15 -20 -12 0 -13 -4 -6 -19 6 -10 7 -21 4
-25 -3 -3 -2 -6 3 -6 11 0 34 48 34 72 0 10 -4 18 -10 18 -5 0 -10 -9 -10 -20z"/>
<path d="M1560 1585 c7 -9 13 -29 12 -45 0 -17 3 -30 8 -30 4 0 17 -16 29 -36
23 -39 26 -48 12 -39 -5 3 -12 1 -16 -4 -3 -6 4 -8 15 -6 17 3 25 -5 41 -43
12 -26 27 -76 34 -111 15 -69 49 -116 66 -90 15 22 6 53 -18 64 -12 5 -24 18
-27 28 -3 14 -1 16 8 8 7 -6 16 -8 19 -4 11 11 8 51 -5 59 -8 5 -9 2 -5 -9 3
-10 2 -17 -3 -17 -6 0 -10 5 -10 11 0 6 -10 19 -22 29 -13 10 -20 22 -16 26 4
4 14 2 21 -4 17 -15 27 -6 27 23 0 25 -65 81 -90 78 -9 -2 -10 0 -3 3 9 4 8
16 -4 47 -20 53 -41 77 -66 77 -16 0 -17 -2 -7 -15z"/>
<path d="M1441 1533 c8 -10 19 -21 24 -25 6 -5 6 -11 -2 -16 -8 -5 -7 -12 4
-27 15 -19 15 -19 9 5 -7 24 -7 24 9 5 8 -11 13 -25 10 -33 -2 -7 -1 -10 5 -7
10 6 40 -45 40 -67 -1 -7 -7 1 -15 17 -9 20 -14 24 -14 12 -1 -10 10 -28 24
-41 17 -16 22 -29 18 -44 -4 -16 -1 -22 12 -22 13 0 15 -3 7 -13 -8 -9 -8 -29
-1 -68 5 -30 11 -78 13 -107 3 -44 0 -55 -17 -67 -20 -14 -20 -14 4 -13 30 2
53 21 82 67 18 30 22 51 22 128 0 53 -3 87 -8 80 -5 -7 -6 0 -3 18 5 23 4 26
-4 14 -6 -11 -6 -36 1 -75 6 -31 8 -73 4 -93 -6 -33 -41 -111 -49 -111 -2 0
-4 44 -4 98 0 149 -44 273 -127 357 -43 45 -70 61 -44 28z"/>
<path d="M1529 1315 c-1 -8 -2 -45 -3 -82 -2 -74 -28 -144 -86 -228 -33 -48
-25 -64 9 -17 12 15 24 32 28 37 9 11 45 87 61 126 8 20 9 120 2 139 -1 3 -2
13 -1 23 1 9 0 17 -3 17 -3 0 -7 -7 -7 -15z"/>
<path d="M1688 1131 c-2 -38 0 -82 3 -97 4 -16 7 15 8 69 1 112 -6 130 -11 28z"/>
<path d="M1740 1146 c0 -15 -3 -16 -15 -6 -13 11 -15 9 -15 -13 0 -14 7 -27
15 -31 8 -3 15 -10 15 -16 0 -6 -5 -8 -10 -5 -6 4 -10 3 -9 -2 1 -4 0 -15 -4
-23 -13 -37 -14 -60 -1 -71 8 -6 14 -23 14 -37 0 -26 0 -26 -25 8 l-25 34 2
-95 2 -94 6 80 c3 44 7 66 8 49 1 -16 8 -38 15 -49 13 -17 15 -17 30 6 11 15
13 27 7 33 -14 14 -12 48 5 70 12 16 12 24 1 51 -12 27 -11 35 2 57 14 23 13
28 -1 49 -15 20 -17 21 -17 5z"/>
<path d="M1443 763 l-1 -58 8 50 c4 28 4 54 0 58 -4 4 -7 -18 -7 -50z"/>
<path d="M1135 520 c11 -5 90 -8 175 -8 153 1 153 1 55 8 -144 11 -255 11
-230 0z"/>
<path d="M2740 507 c-3 -3 -96 -7 -207 -10 -111 -3 -205 -7 -210 -10 -4 -3
-136 -7 -292 -9 -155 -1 -285 -6 -287 -9 -8 -14 80 -29 167 -29 168 0 827 35
837 44 6 6 -2 28 -8 23z"/>
<path d="M92 492 c-106 -3 -126 -22 -24 -23 37 -1 85 -2 107 -4 159 -12 644
-27 700 -21 39 3 89 8 112 10 50 3 65 13 32 20 -13 3 -190 7 -394 10 -203 3
-386 7 -405 8 -19 2 -77 2 -128 0z"/>
<path d="M577 414 c-3 -3 -82 -5 -176 -4 -165 1 -241 -5 -241 -19 0 -9 358
-14 402 -6 20 4 39 13 42 21 5 14 -15 20 -27 8z"/>
<path d="M2110 409 c0 -3 12 -11 26 -18 29 -13 420 -15 428 -2 3 4 -9 6 -27 4
-29 -2 -30 -2 -7 6 17 6 -25 9 -125 10 -82 1 -183 3 -222 4 -40 2 -73 0 -73
-4z"/>
<path d="M900 394 c-12 -13 -5 -15 63 -13 57 1 77 5 77 15 0 21 -123 19 -140
-2z"/>
<path d="M606 359 c-13 -10 -29 -19 -35 -19 -6 0 -11 -4 -11 -10 0 -6 54 -10
143 -10 130 0 144 2 160 20 9 11 17 25 17 30 0 5 -51 9 -125 9 -107 -1 -128
-4 -149 -20z m114 -13 c8 -2 -14 -4 -50 -5 -36 0 -59 3 -53 7 12 7 65 6 103
-2z"/>
<path d="M305 310 c-3 -4 34 -7 82 -6 92 1 119 -13 69 -35 -14 -7 -26 -16 -26
-21 0 -13 15 -9 36 10 10 9 32 27 48 40 l28 22 -116 -1 c-64 -1 -118 -5 -121
-9z"/>
<path d="M863 314 c-7 -3 -17 -21 -23 -40 l-12 -34 -171 -1 c-184 -2 -155 -16
36 -18 l97 -1 0 -26 c0 -27 0 -27 23 7 20 31 28 35 82 40 53 5 55 6 16 7 -34
2 -42 5 -37 17 3 8 0 15 -6 15 -26 0 4 13 37 16 19 2 43 8 53 13 13 8 6 10
-33 10 -27 0 -55 -3 -62 -5z"/>
<path d="M981 301 c-17 -17 -18 -26 -11 -52 7 -22 6 -35 -1 -40 -6 -3 -10 -15
-9 -25 8 -72 7 -73 -82 -77 -53 -2 -34 -3 52 -4 104 -1 130 1 115 10 -11 6
-22 12 -25 12 -13 1 -30 17 -25 25 6 10 20 8 68 -13 43 -18 175 -25 186 -10 3
6 13 12 21 15 28 10 -56 20 -143 16 -48 -2 -87 0 -87 3 0 4 -14 9 -31 13 -33
6 -36 33 -3 28 85 -12 212 -21 274 -21 76 1 76 2 5 15 -32 5 -36 8 -20 14 11
4 32 5 48 3 15 -2 27 0 27 6 0 6 -21 11 -47 11 -219 2 -295 7 -303 20 -14 22
0 39 38 46 31 6 33 8 17 15 -32 12 -44 10 -64 -10z"/>
<path d="M1730 311 c-8 -6 -37 -13 -65 -17 -39 -5 -45 -9 -30 -15 11 -4 14 -8
6 -8 -8 -1 -12 -3 -9 -6 3 -3 38 2 78 10 50 11 77 12 84 5 19 -19 -13 -34 -83
-38 -55 -3 -68 -7 -64 -18 3 -8 0 -20 -6 -28 -9 -11 1 -11 61 -1 51 9 76 19
85 32 11 16 21 18 68 13 62 -7 67 0 32 42 -25 31 -87 50 -87 27 0 -10 -3 -10
-12 -1 -14 14 -37 15 -58 3z m128 -23 c15 -15 16 -32 2 -23 -5 3 -10 1 -10 -4
0 -6 -9 -11 -20 -11 -11 0 -20 4 -20 9 0 5 -3 16 -6 25 -5 12 0 16 18 16 13 0
29 -5 36 -12z"/>
<path d="M2200 310 c0 -5 6 -10 13 -10 7 0 23 -9 36 -21 12 -12 25 -18 29 -14
3 3 0 10 -8 15 -27 17 -1 22 142 27 79 3 145 7 147 9 2 2 -77 4 -177 4 -115 0
-182 -4 -182 -10z"/>
<path d="M1085 290 c11 -5 14 -9 8 -9 -7 -1 -13 -5 -13 -11 0 -6 36 -10 88
-10 55 0 82 4 73 9 -11 7 -7 11 15 14 16 3 -8 4 -53 3 -44 0 -79 2 -76 7 2 4
-11 7 -29 6 -27 0 -30 -2 -13 -9z"/>
<path d="M1478 283 c23 -2 61 -2 85 0 23 2 4 4 -43 4 -47 0 -66 -2 -42 -4z"/>
<path d="M2398 243 c45 -2 119 -2 165 0 45 1 8 3 -83 3 -91 0 -128 -2 -82 -3z"/>
<path d="M1937 214 l17 -26 19 24 19 23 -17 -29 c-14 -23 -15 -30 -4 -37 8 -5
11 -9 7 -9 -4 0 0 -9 9 -20 23 -27 28 -17 7 15 -13 20 -15 31 -6 49 10 21 15
23 79 20 37 -2 91 1 118 5 39 7 14 9 -108 10 l-157 1 17 -26z"/>
<path d="M1784 190 c-6 -6 -40 -13 -77 -17 l-66 -6 23 -18 c16 -13 44 -20 81
-21 l58 -3 1 38 c1 39 -3 44 -20 27z"/>
<path d="M760 147 c-7 -15 -31 -45 -52 -68 -21 -22 -38 -45 -38 -52 0 -6 13 3
30 21 53 58 82 101 77 114 -3 8 -10 2 -17 -15z"/>
<path d="M2073 108 c7 -4 48 -7 92 -6 90 1 76 5 -32 10 -40 2 -67 0 -60 -4z"/>
<path d="M2440 110 c0 -5 17 -10 38 -10 27 0 33 3 22 10 -20 13 -60 13 -60 0z"/>
<path d="M1833 94 c9 -10 176 -11 170 -1 -2 4 -43 7 -90 7 -48 0 -83 -3 -80
-6z"/>
<path d="M1089 60 c0 -23 -1 -23 -9 -5 -7 16 -9 11 -9 -20 0 -26 2 -35 8 -27
4 8 12 12 17 10 13 -5 17 43 5 55 -8 8 -11 4 -12 -13z"/>
</g>
</svg>
